<svg xmlns="http://www.w3.org/2000/svg" viewBox="0 0 512 512" height="512" width="512"><g><g><path d="M171.2128 104.16537600000001c20.48 -17.92 16.2816 -63.232 -20.760576 -62.6176 -44.9024 0.768 -47.386624000000005 47.335424 -12.1856 66.56 -27.828224 7.424 -49.614848 60.545024 7.858176 66.56 71.4752 -10.520576 71.757824 -59.314176 25.088 -70.5024Z" fill="#f15807" stroke-width="2.048"></path><path d="M113.4592 327.68c10.24 -4.300800000000001 7.245824 -14.055424 -2.3040000000000003 -5.5808 5.5296 -13.797376 -5.12 -12.8 -6.2463999999999995 -0.3072 -5.400576 -10.24 -14.872575999999999 -6.1952 -5.400576 2.8917759999999997 -11.317248 -3.6085760000000002 -15.745023999999999 5.12 -1.998848 5.607424 -13.7216 5.861376 -6.7584 13.056000000000001 3.8912 4.5568 -8.267776 12.8 2.8672 13.568 6.017024 1.4090239999999998 6.014976 12.492799999999999 15.640576 8.9088 5.502975999999999 -2.56 12.1344 3.4037759999999997 16.0768 -3.9424 0.538624 -6.017024Z" fill="#1a1a1a" stroke-width="2.048"></path><path d="M69.4272 323.4304c7.2703999999999995 -10.010624 -0.6144 -16.537599999999998 -5.965824 -2.023424 -1.9456 -10.9568 -12.8 -10.622976000000001 -6.270976 0.794624 -12.8 -8.884224 -14.233600000000001 1.972224 -1.818624 6.017024 -12.032 2.7893760000000003 -10.24 12.8 1.6650239999999998 5.963776 -6.426624 10.059776 1.560576 16.613376 5.2736 3.3792 2.7648 14.821376 11.827200000000001 9.8816 5.656576 -2.56 11.188224 11.290624 14.618624 0.6656000000000001 2.893824 -5.505024000000001 14.6432 -2.4576 13.029376000000001 -11.032575999999999 -1.4336 -6.0661760000000005Z" fill="#1a1a1a" stroke-width="2.048"></path><path d="M139.288576 224.7168a17.92 17.92 0 0 0 -23.398400000000002 4.5568c-4.8128 6.7584 -3.84 16.613376 0.589824 16.8448 1.6896 0 2.56 -2.1504000000000003 2.123776 -3.7888 -2.56 -9.805824000000001 7.68 -17.92 17.639423999999998 -12.8a10.24 10.24 0 0 1 4.1983999999999995 11.1104c-1.6650239999999998 5.632 -8.96 8.0384 -11.6224 2.8672 -2.994176 -5.709823999999999 6.324224 -2.8672 7.065600000000001 -6.017024 1.3578240000000001 -5.8368 -8.677376 -4.759551999999999 -11.008000000000001 -1.536 -6.014976 6.529024000000001 -0.1536 16.564224 8.730624 16.359424 13.3632 -0.229376 17.637376 -20.760576 5.6832 -27.596799999999998Z" fill="#1a1a1a" stroke-width="2.048"></path><path d="M155.69920000000002 324.018176c8.0896 -10.7008 1.816576 -17.3568 -5.861376 -2.2016 -1.3578240000000001 -10.444799999999999 -12.109824000000001 -10.674176 -6.2976 0.436224 -12.263424 -9.035776 -14.311424 1.1530239999999998 -2.125824 5.5808 -12.158976000000001 2.048 -10.24 10.369024 1.3578240000000001 5.7344 -6.989824 9.216000000000001 0.6656000000000001 15.796224 5.12 3.457024 1.970176 14.155776 11.288575999999999 9.9328 5.7856000000000005 -2.2016 10.571776 11.237376000000001 14.592 1.3824 3.1744000000000003 -5.12 13.312000000000001 -2.023424 11.827200000000001 -10.881024 -1.1530239999999998 -5.6832Z" fill="#1a1a1a" stroke-width="2.048"></path><path d="M106.752 170.31577600000003c86.603776 33.7408 143.36 -62.72 109.082624 -115.7632C196.76160000000002 24.958976 155.8016 7.68 118.6816 14.104576 42.983424 27.0336 26.2144 138.907648 106.752 170.317824Zm-23.3472 -22.347776000000003C90.368 122.11200000000001 112.64 110.258176 135.448576 109.84857600000001c26.650624 -0.485376 49.510400000000004 12.8 57.651199999999996 41.601023999999995C161.28 179.48262400000002 111.25760000000001 174.08 83.40480000000001 147.968Zm38.529024 -47.640576C100.45439999999999 88.39372800000001 98.740224 65.277952 109.568 51.685376a34.8672 34.8672 0 0 1 53.2992 -1.077248c10.24 11.393024 6.2463999999999995 30.72 -0.3072 40.243199999999995a31.488 31.488 0 0 1 -40.626176 9.472Zm-61.44 -15.693824000000001c8.243200000000002 -53.479424 51.456 -71.9872 90.699776 -64.512 35.506176 6.782976 67.713024 35.328 68.71039999999999 69.12 0.485376 17.5616 -5.12 36.9664 -22.145024000000003 56.6784 -5.12 -15.2064 -16.613376 -34.8672 -42.418176 -40.652800000000006 31.5392 -16.922624 25.524224 -73.60102400000001 -19.275776 -72.2944 -43.52 1.28 -52.506624 52.916224 -16.846848 72.882176C99.50617600000001 110.64524800000001 86.091776 122.88 78.565376 143.0528a69.12 69.12 0 0 1 -17.995776000000003 -58.4192Z" fill="#1a1a1a" stroke-width="2.048"></path><path d="M65.613824 247.1936c-5.2736 4.1983999999999995 -6.733823999999999 -1.4336 -3.047424 -8.370175999999999 3.1744000000000003 -6.119424 1.6896 -10.24 -1.792 -12.6464 -5.505024000000001 -3.7376 -17.127423999999998 3.072 -12.3904 7.68a2.9184 2.9184 0 0 0 4.2496 -0.897024c2.2016 -3.4037759999999997 6.785024000000001 -1.6896 4.581376000000001 2.842624 -5.2736 9.240575999999999 -2.7648 15.36 0.999424 17.7664a8.1408 8.1408 0 0 0 10.752 -1.1530239999999998c2.7136 -3.4816 1.099776 -8.7552 -3.354624 -5.2223999999999995Z" fill="#1a1a1a" stroke-width="2.048"></path><path d="M479.07840000000004 335.745024c8.4992 -32.948224 10.5984 -66.56 -3.8912 -87.04 -7.68 -11.239424000000001 -19.329024 -17.127423999999998 -33.28 -18.561024000000003 -0.5632 -14.209024 -2.56 -22.8352 -19.302400000000002 -25.139200000000002 -6.9632 -34.355199999999996 -22.272000000000002 -55.193599999999996 -48.998400000000004 -64.8704 7.8848 -1.8944 36.222976 -0.6922240000000001 32.536576000000004 -15.540224 35.252224000000005 -7.68 10.24 -39.806976000000006 -22.552576000000002 -17.688576 -4.1983999999999995 -21.8112 -22.528 -4.837376 -33.81862400000001 3.5082240000000002 12.1344 -14.848 6.4512 -33.56262400000001 -11.851776 -24.141824 0.894976 -23.525376 -27.2896 -13.643776 -27.367424 6.731776 -8.472576 -4.069376 -17.049599999999998 0.4096 -12.8 23.04 -4.6592 -5.451776 -11.288575999999999 -10.9568 -17.688576 -11.313152 -11.827200000000001 -27.9552 -43.52 -14.6944 -25.9072 5.758976 -1.7408 4.9664 -0.28262400000000004 8.192 8.7552 16.896 -21.530624 -3.1744000000000003 -16.513024 9.242624 -16.513024 9.242624 -27.4432 5.605376000000001 -24.190976 32.331776000000005 12.570624 22.5792 -11.034624 12.1856 -17.229824 28.440576 -17.92 48.306176a21.323776000000002 21.323776000000002 0 0 0 -9.9328 5.761024000000001c-59.469824 -0.4096 -126.951424 -4.122624 -172.4928 0.587776 -46.08 4.481024000000001 -39.194624000000005 55.476224 1.4848 56.32 36.734976 -0.3584 84.224 0.7168 123.36537600000001 0.794624 -8.728575999999999 8.7552 -13.131776 16.510976 -13.7728 29.9008 -56.1152 -0.9748479999999999 -69.9392 -0.436224 -111.179776 0.9216000000000001s-43.52 54.784 -2.791424 57.446400000000004c40.96 1.536 81.92 -0.512 122.88 -0.641024 4.890624 19.6608 12.621824 40.626176 28.313599999999997 50.176 -3.3013760000000003 34.635776 -15.36 42.727424 -4.530176000000001 49.766400000000004 -6.8608 2.226176 -14.413824 3.6864000000000003 -24.295424 13.748224 -9.2672 9.445376 -1.6384 23.474176 7.372800000000001 23.832576000000003 18.151424 0.768 138.0352 9.498624 143.5648 -5.761024000000001 2.074624 5.376 5.505024000000001 6.7072 10.573824 6.631424s78.38719999999999 -0.485376 78.38719999999999 -0.485376 47.6672 -2.2016 49.664 -11.905024c2.7893760000000003 -13.541376 -6.7584 -19.531776 -25.268224 -28.16 10.676224000000001 -11.393024 -7.141376 -19.175424 -11.9296 -67.76217600000001 29.108224 -7.4752 41.16480000000001 -24.090624000000002 48.615424 -52.9408ZM55.934976000000006 352.9728c-32.894976 -2.2528 -30.6688 -44.4928 2.7648 -45.131776 41.140224 -1.3578240000000001 54.810624000000004 -1.818624 110.823424 -0.9482240000000001a183.1936 183.1936 0 0 0 7.245824 45.441024c-40.884224 0.2048 -81.639424 2.1504000000000003 -120.83200000000001 0.638976Zm261.12 -226.6624c16.742400000000004 -1.6138240000000001 25.217024000000002 3.096576 32.487424 8.318976000000001 -19.531776 -5.707776 -46.2336 -0.9728 -64.9728 6.682624 3.201024 -6.8608 16.9984 -13.492224 32.4096 -15.0016Zm-83.070976 93.08160000000001c1.458176 -3.969024 5.9904 -5.605376000000001 10.5472 -6.324224a3.072 3.072 0 0 0 2.56 -2.994176 79.077376 79.077376 0 0 1 7.194624 -32.948224 15.36 15.36 0 0 0 11.3664 -7.68c10.24 5.5296 24.344576 -2.123776 23.04 -13.056000000000001 5.298176000000001 5.9392 14.6944 2.9184 17.459200000000003 -1.304576a5.709823999999999 5.709823999999999 0 0 0 6.168576 5.5808c-3.072 11.8784 7.297024 22.808576000000002 21.9648 14.848 18.8416 2.8672 19.3536 -13.9264 16.537599999999998 -18.919424 3.8912 1.1776 8.933376 0 10.035200000000001 -4.1717759999999995 2.56 5.12 7.68 10.418175999999999 20.043776 7.68a12.210176 12.210176 0 0 0 14.311424 9.803776c0 4.6592 7.909376 11.905024 13.0048 13.697023999999999 3.1744000000000003 1.099776 7.68 17.5104 8.884224 25.2416 1.482752 9.189376000000001 17.92 -6.170624 18.661376 21.016576a50.432 50.432 0 0 0 -47.9232 46.08c-13.1584 -4.4544 -23.425024 0 -24.678400000000003 21.8624 -31.0272 0.436224 -69.5296 -3.3280000000000003 -97.048576 -18.149376 -24.832 -13.4144 -40.833024 -36.4544 -32.129024 -60.2624Zm134.656 124.7232c5.761024000000001 27.674624 18.509824000000002 37.7856 44.3904 38.1952 1.716224 0 2.56 1.255424 1.792 2.7648 -1.8944 3.659776 -27.1872 2.279424 -40.065024 -12.8 -5.9125760000000005 -6.912 -10.391551999999999 -20.070400000000003 -10.8544 -28.518400000000003 -0.229376 -2.279424 3.584 -4.7882240000000005 4.737024000000001 0.3584ZM321.560576 301.67040000000003q12.8 1.509376 27.009024 2.023424l-23.4496 41.445375999999996s-9.8816 -16.359424 -9.4208 -20.787200000000002c4.300800000000001 -7.9872 17.281024000000002 -9.472 5.761024000000001 -22.6816Zm-64 17.92c-4.4544 0.768 -6.656000000000001 -17.3056 -9.0624 -28.3648a3.250176 3.250176 0 0 1 1.6896 -4.018176c4.532224 -1.6138240000000001 5.9392 5.12 6.989824 12.236799999999999 0.690176 5.1957759999999995 4.6592 19.326976 0.256 20.043776Zm-197.52960000000002 -55.681024c-33.048576000000004 -0.663552 -38.809599999999996 -40.370176 -0.843776 -43.902976 43.649024 -4.581376000000001 110.08 -1.099776 167.75577600000003 -0.638976 -3.4549760000000003 6.885376 -3.250176 17.203200000000002 -0.6144 25.6a146.305024 146.305024 0 0 0 -36.0448 19.968c-18.763776000000004 -0.436224 -108.875776 -1.255424 -130.2528 -1.024Zm128 104.706048c13.492224 -16.871424 82.458624 -50.432 93.134848 -33.28 2.56 4.120576 2.3552 14.514175999999999 -7.2703999999999995 23.296 3.659776 9.189376000000001 6.4512 26.3168 -0.3072 35.5328a57.651199999999996 57.651199999999996 0 0 1 -14.977024 -12.8 2.689024 2.689024 0 0 0 -4.096 3.4816 49.10080000000001 49.10080000000001 0 0 0 15.36 14.258176 40.243199999999995 40.243199999999995 0 0 1 -19.943424 11.008000000000001 89.0368 89.0368 0 0 1 -12.517376 -12.8c-2.56 -2.994176 -5.324800000000001 1.1264 -3.2256 4.5568a57.473024 57.473024 0 0 0 7.909376 9.6768c-27.8016 2.6624000000000003 -46.974976000000005 -15.2576 -54.194176 -42.9056Zm97.99680000000001 109.234176a2.791424 2.791424 0 0 1 -4.1472 1.3312000000000002c-9.035776 -7.372800000000001 -20.992 -14.08 -56.754176 -15.36 -3.969024 0 -5.12 -4.6080000000000005 -1.2288 -4.734976 35.096576 -1.1264 63.870976000000006 12.6464 62.0032 18.763776000000004Zm0.845824 -144.766976a11.905024 11.905024 0 0 0 -5.761024000000001 -5.9904c-2.56 -12.8 -4.096 -21.684224 -5.9904 -36.020224000000006a163.27679999999998 163.27679999999998 0 0 0 20.48 6.0928c-13.490176 13.1584 -2.2773760000000003 15.36 0.845824 24.627200000000002 -0.8704 2.4576 -6.426624 8.114176 -9.728 11.290624Zm43.52 139.18617600000002c-3.2768 0.512 -3.713024 -11.9296 -10.522624 -31.4368 -2.8672 -8.216576 -4.222976 -11.571200000000001 -1.28 -12.8s4.839424 6.1952 9.754624 24.397824c3.917824 15.0016 5.505024000000001 19.275776 1.8944 19.838976Zm2.023424 -66.56c-4.864 -0.4096 -30.337024000000003 0.3584 -29.108224 -4.8885760000000005 0.3584 -1.562624 -0.6144 -2.791424 19.558400000000002 -1.3312000000000002s57.778176 0.768 67.352576 -1.4336c6.631424 -1.511424 9.0112 3.096576 5.5296 4.1472 -12.236799999999999 3.6085760000000002 -55.474176 4.0448 -63.488 3.4037759999999997Zm83.37817600000001 53.248000000000005c-21.7088 0.8704 -39.936 7.911424 -54.784 14.362624 -2.2528 0.9728 -3.3792 -0.8704 -2.56 -2.381824 2.074624 -3.7376 14.9504 -8.7552 28.3648 -12.466175999999999 18.8928 -5.12 33.613824 -4.173824 34.406400000000005 -2.330624 0.333824 1.024 -0.9216000000000001 2.535424 -5.5808 2.7136Zm-45.9264 -153.6c-3.2768 -22.142976 9.1648 -29.491200000000003 17.688576 -22.1696 1.6896 1.4336 0.9482240000000001 19.046400000000002 5.12 18.714624a2.9696 2.9696 0 0 0 2.56 -3.610624c-5.451776 -27.8528 4.6592 -53.323776 30.4128 -60.7744 -0.512 0.8192 -6.7584 30.3616 -0.434176 30.72 5.12 0.3584 2.3552 -9.854976 7.2703999999999995 -32.075776000000005a34.8672 34.8672 0 0 1 26.034176 5.12 163.098624 163.098624 0 0 0 -6.041600000000001 30.181376c-0.485376 3.969024 3.7376 7.194624 4.481024000000001 3.2522240000000004a303.796224 303.796224 0 0 1 6.8608 -29.773824c20.1728 12.441600000000001 19.6608 52.865024 9.8304 88.09062399999999 -10.981376000000001 38.5024 -93.46457600000001 42.622976 -103.936 -27.725824Z" fill="#1a1a1a" stroke-width="2.048"></path><path d="M264.72857600000003 235.85177600000003c24.141824 11.341824 60.084224000000006 -5.5808 35.84 -31.6928 -38.782976000000005 -33.1776 -66.072576 14.901248 -35.84 31.694848000000004Zm2.7648 -36.171776c5.863424 -2.0991999999999997 12.058624 0 18.5344 2.791424 -7.68 8.830976000000001 -10.7008 20.6848 -11.749376 29.925376 -19.558400000000002 -0.6656000000000001 -19.994624 -28.1088 -6.785024000000001 -32.7168Z" fill="#1a1a1a" stroke-width="2.048"></path><path d="M198.682624 248.498176c-0.23142400000000002 3.969024 6.144 4.634624 6.117376 0.6144 0 -6.475776 2.3040000000000003 -24.088576 -3.9936 -23.398400000000002 -5.4272 0.5632 -1.9210239999999998 19.046400000000002 -2.123776 22.784Z" fill="#1a1a1a" stroke-width="2.048"></path><path d="M342.501376 202.24c4.9418239999999996 -1.9968 13.1072 -8.9088 17.127423999999998 -11.851776 3.2256 -2.381824 0.46080000000000004 -7.399424 -2.994176 -5.376a51.7632 51.7632 0 0 0 -17.383423999999998 13.285376000000001c-1.792 2.0991999999999997 0.768 4.9664 3.250176 3.9424Z" fill="#1a1a1a" stroke-width="2.048"></path><path d="M328.421376 241.33017600000002c6.119424 0.2048 13.2096 0.3584 13.697023999999999 -2.56s-2.433024 -3.250176 -10.24 -3.5328000000000004c-12.441600000000001 -0.434176 -12.3904 -0.6144 -12.621824 -3.8133760000000003a75.1104 75.1104 0 0 1 0.999424 -8.935424000000001 3.096576 3.096576 0 0 0 -6.119424 -0.7925760000000001c-2.4309760000000002 13.824 -3.6864000000000003 18.944 14.284799999999999 19.636224Z" fill="#1a1a1a" stroke-width="2.048"></path><path d="M181.323776 240.461824c-2.56 0.6656000000000001 -2.2773760000000003 -2.996224 -3.1744000000000003 -5.12 -5.451776 -21.9648 -26.750975999999998 -12.8 -19.968 15.5648a3.096576 3.096576 0 0 0 6.068224000000001 -1.1264c-1.765376 -12.8 -1.28 -21.786624 4.1472 -20.250624000000002s3.6864000000000003 13.824 9.191424000000001 16.64c6.117376 3.2256 12.339200000000002 -8.0896 3.7376 -5.709823999999999Z" fill="#1a1a1a" stroke-width="2.048"></path><path d="M292.481024 190.64422399999998c4.9664 4.096 14.6944 14.616576 18.5856 14.053376 8.574976000000001 -1.28 -10.088448000000001 -16.050176 -15.36 -19.302400000000002 -3.3792 -2.0991999999999997 -6.426624 2.689024 -3.2276480000000003 5.249024Z" fill="#1a1a1a" stroke-width="2.048"></path><path d="M333.492224 251.44320000000002c-4.352 -2.56 -31.002624 -4.9664 -31.924224 1.0752000000000002s21.299200000000003 2.9696 30.72 4.839424c3.072 0.6144 5.376 -3.4304 1.202176 -5.914624Z" fill="#1a1a1a" stroke-width="2.048"></path><path d="M102.017024 244.1728c-9.216000000000001 9.6256 -18.2272 0.28262400000000004 -14.336 -14.618624 0.458752 -1.6384 -0.46284800000000004 -3.7888 -2.177024 -3.7888 -7.450624 0 -8.7552 24.014848 2.994176 28.391424a16.691200000000002 16.691200000000002 0 0 0 18.151424 -5.12c2.842624 -3.4304 -1.0752000000000002 -8.601600000000001 -4.634624 -4.864Z" fill="#1a1a1a" stroke-width="2.048"></path><path d="M346.6752 207.1552c-12.8 20.965376 9.523200000000001 45.031424 42.110976 28.774400000000004 20.326400000000003 -10.24 14.0288 -40.2944 -4.786176 -42.598400000000005 -10.035200000000001 -1.3312000000000002 -32.256 5.5296 -37.3248 13.824Zm34.9696 -7.68c19.378176 1.6896 19.1488 31.2832 -4.0448 34.994176 -0.999424 -10.24 -4.5568 -23.191552 -11.751424000000002 -32.0512a34.945024 34.945024 0 0 1 15.796224 -3.072Z" fill="#1a1a1a" stroke-width="2.048"></path></g></g></svg>