<svg xmlns="http://www.w3.org/2000/svg" viewBox="0 0 512 512" height="512" width="512"><g><g><path d="M358.40000000000003 376.52479999999997c-39.960576 6.273024 -52.658176 -24.702976 -52.658176 -24.702976 -24.064 12.056576 -32.1536 35.506176 -37.402624 50.251776 -14.8992 41.8816 -7.68 79.847424 7.168 82.176 0 0 -5.554176000000001 -40.96 26.189824 -56.4736a90.5728 90.5728 0 0 1 87.04 3.457024 200.34560000000002 200.34560000000002 0 0 0 -6.0928 -29.159424c-16.2304 14.4384 -22.6816 -12.670976000000001 -24.244224 -25.5488Z" fill="#f15807" stroke-width="2.048"></path><path d="M479.61702399999996 390.04159999999996c-3.815424 -56.32 -29.5424 -59.5456 -29.5424 -59.5456 -0.8192 15.7696 -4.9152 20.148224 -8.192 27.238400000000002 29.491200000000003 60.0576 20.324352 103.04102400000001 2.56 122.08537600000001 38.756352 -1.099776 37.4784 -55.883776 35.172352 -89.778176Z" fill="#f15807" stroke-width="2.048"></path><path d="M419.6352 170.93017600000002c17.1008 -52.9408 -18.356223999999997 -65.97017600000001 -18.356223999999997 -65.97017600000001 6.912 -21.121024000000002 -1.304576 -35.608576 -15.179776 -38.017024 -3.584 -24.883200000000002 -24.705024 -52.402176 -78.821376 -48.279552S246.83520000000001 46.721024 245.76 65.409024c-13.287424000000001 0.46080000000000004 -27.674624 5.246976 -26.5216 35.84 -41.601023999999995 19.6608 -4.737024000000001 78.5408 -4.737024000000001 78.5408A211.71200000000002 211.71200000000002 0 0 1 250.88 158.72c-15.8208 -27.8016 -7.3216 -74.24 -1.9968 -81.51039999999999s19.175424 -8.011776 40.728576000000004 -5.4784 38.4 -5.6832 48.896 -21.221376c-0.382976 20.1728 6.656000000000001 21.76 19.431424 27.160576000000002 19.431424 8.243200000000002 12.9536 50.688 2.689024 78.2848 38.553599999999996 20.838400000000004 39.424 30.5664 44.926976 50.049023999999996 15.949824000000001 -2.56 24.627200000000002 2.0991999999999997 24.627200000000002 2.0991999999999997 7.399424 -29.5424 -10.5472 -37.1712 -10.5472 -37.1712Z" fill="#f15807" stroke-width="2.048"></path><path d="M310.913024 149.889024c-11.649023999999999 1.355776 -19.456 -3.866624 -19.9168 1.816576s13.1584 6.2976 21.118976 3.354624c2.7648 -1.024 3.4816 -5.7344 -1.202176 -5.1712Z" fill="#1a1a1a" stroke-width="2.048"></path><path d="M283.648 101.58080000000001c2.56 -22.1696 -21.835776000000003 -23.910400000000003 -37.554176 -18.610176 -5.12 1.765376 -7.68 8.677376 -8.423424 13.899776 -2.226176 17.5616 9.857024 20.48 25.8048 20.787200000000002 11.9808 0.28262400000000004 18.688 -3.9936 20.1728 -16.0768Zm-10.981376000000001 8.833024c-4.6080000000000005 2.1504000000000003 -23.04 1.560576 -27.009024 -2.56 8.96 -4.020224000000001 21.886976 -10.24 30.0544 -16.8448 2.6624000000000003 4.8128 3.659776 15.0528 -3.045376 19.402752Z" fill="#1a1a1a" stroke-width="2.048"></path><path d="M81.2032 266.496c2.1504000000000003 0.8192 11.4176 -6.0928 20.48 -4.8885760000000005a3.1744000000000003 3.1744000000000003 0 0 0 3.3280000000000003 -3.2276480000000003c1.0752000000000002 -9.0112 -34.893824 3.969024 -23.808 8.116224Z" fill="#1a1a1a" stroke-width="2.048"></path><path d="M294.1952 117.76c6.068224000000001 0 -1.5872000000000002 -9.5744 3.7888 -13.850624 4.993024 -3.9424 11.9808 5.324800000000001 15.5648 0.897024a2.945024 2.945024 0 0 0 -0.8192 -4.1983999999999995c-9.8816 -6.629376000000001 -16.050176 -2.9696 -18.4832 -1.4336 -7.2703999999999995 4.5056 -6.170624 18.5856 -0.0512 18.5856Z" fill="#1a1a1a" stroke-width="2.048"></path><path d="M335.0016 279.4496c-13.3632 0 -20.48 9.472 -20.2752 17.92 0.229376 7.297024 5.965824 11.776 18.2784 12.288 14.0288 0.589824 20.353024 -4.300800000000001 20.48 -12.288s-6.0928 -17.637376 -18.4832 -17.92Zm-2.072576 23.629824c-19.687424 1.714176 -11.7248 -16.257024 0.178176 -16.922624a64.17817600000001 64.17817600000001 0 0 0 -0.178176 16.922624Z" fill="#1a1a1a" stroke-width="2.048"></path><path d="M293.8368 124.928c-3.6864000000000003 1.28 -1.255424 7.68 2.074624 5.658624 6.322176000000001 -3.866624 15.36 3.096576 16.433152 -1.792s-12.3904 -6.733823999999999 -18.507776000000003 -3.866624Z" fill="#1a1a1a" stroke-width="2.048"></path><path d="M473.7536 335.0016c25.2928 -54.347775999999996 8.396799999999999 -98.942976 -18.6368 -120.6272 0.6656000000000001 -12.8 -3.4816 -30.437376 -13.029376000000001 -39.68 15.36 -20.48 5.349376 -60.928000000000004 -19.406848000000004 -70.09280000000001 11.6736 -18.3296 -0.5632 -45.568 -23.04 -46.08 -6.168576 -50.200576000000005 -166.4 -64.792576 -170.8544 1.1776 -18.251776000000003 2.074624 -27.596799999999998 22.452223999999998 -23.04 39.655424 -30.72 9.6768 -32.178176 59.518976 -15.0528 81.637376 -2.123776 3.584 -6.2197759999999995 8.372224000000001 -8.0896 13.1072a29.876224 29.876224 0 0 0 -13.899776 -7.2192c-37.5296 -10.24 -138.8544 8.628224000000001 -136.7552 70.2976 -26.087424 10.24 -11.571200000000001 67.917824 5.12 75.92960000000001 -40.269824 45.568 -33.28 161.28 42.520576 163.40377600000002 56.500224 -5.12 131.45702400000002 -52.1216 136.884224 -98.840576 2.7402240000000004 -24.193024 -5.9392 -47.1552 -29.3888 -52.224000000000004a69.32480000000001 69.32480000000001 0 0 0 30.72 -36.352000000000004c15.1552 5.505024000000001 23.910400000000003 15.36 26.1632 23.04 -18.356223999999997 18.6368 -18.251776000000003 60.491776 2.9696 77.1584 -5.2736 32.897024 -4.020224000000001 60.391424 19.019776000000004 74.24 25.063424 15.104000000000001 115.585024 17.6128 143.6672 -8.318976000000001 23.04 14.745600000000001 58.241023999999996 10.24 72.21862399999999 -12.288 14.387200000000002 -22.759424 33.816576000000005 -103.168 -8.0896 -127.92422400000001ZM189.44 123.828224c5.451776 -17.178624 23.320576000000003 -18.3296 23.04 -23.04 -0.6922240000000001 -9.6768 -1.9456 -19.302400000000002 3.0208000000000004 -26.368000000000002a20.660224 20.660224 0 0 1 16.1792 -8.7552c5.7856000000000005 -0.333824 1.5872000000000002 -20.148224 16.715776 -29.696 34.4576 -25.319423999999998 142.874624 -15.923200000000001 145.4592 25.8048a3.045376 3.045376 0 0 0 2.945024 2.816c20.9408 -1.5872000000000002 31.461376 24.446976 18.7392 39.7312a3.0208000000000004 3.0208000000000004 0 0 0 1.5872000000000002 4.7616000000000005c23.654400000000003 6.0928 32.641024 40.243199999999995 21.6576 60.3136 -3.6864000000000003 6.782976 -1.5872000000000002 7.68 0.845824 11.339776 6.144 9.089024 10.24 21.0944 9.3184 30.976 -9.447424000000002 -7.168 -23.220223999999998 -9.1648 -23.220223999999998 -9.1648 -6.324224 -24.500224 -19.224576000000003 -39.755776 -52.5824 -52.0192 12.8 -24.7808 12.161024 -54.8352 2.816 -68.71039999999999 -11.083776 -16.435200000000002 -37.6832 0 -33.511424 -29.3376 0.743424 -5.12 -4.9152 -9.1136 -9.394176 -2.2528 -21.8112 33.587199999999996 -82.32960000000001 6.5536 -99.84 23.425024 -15.616 15.230976 -10.496 62.027775999999996 0.6144 75.800576 -17.176576 8.269824 -30.5152 14.925824 -39.499776 26.3168 -10.393600000000001 -15.7184 -9.5744 -37.195776 -4.890624 -51.941376Zm102.5536 47.9232c-24.7808 -2.791424 -47.435776 -16.2304 -55.218176 -28.391424 -6.375424 -10.24 -11.495424000000002 -50.507776 1.304576 -65.8432 2.7136 -3.917824 20.736 -3.864576 29.5424 -3.4304 10.727424000000001 0.5632 11.571200000000001 6.8096000000000005 15.5136 7.143424 2.56 0.229376 4.737024000000001 -3.047424 0.4096 -6.785024000000001 19.302400000000002 1.0752000000000002 45.0048 -1.9968 52.8896 -17.664a24.0128 24.0128 0 0 0 4.478975999999999 14.721024c-10.24 0 -13.336575999999999 0.7168 -12.8 4.069376 0.6922240000000001 4.4544 19.329024 1.611776 29.952 3.250176 26.2144 4.020224000000001 19.533824 50.0736 10.24 66.56s-25.088 32.256 -76.312576 26.370048Zm70.11737600000001 44.3392c-22.706176 -1.1018240000000001 -48.332800000000006 1.9189760000000002 -63.819776 25.6 -3.457024 -9.652224 -3.557376 -24.064 -0.641024 -27.392 5.480448000000001 -6.1952 19.994624 -0.589824 21.9136 -13.441024 1.792 -11.902976 17.7152 -14.258176 24.166400000000003 -1.509376 2.7648 5.502975999999999 8.065024000000001 6.373376 15.872 5.656576 4.993024 -0.4096 5.300224 9.345024 2.510848 11.085824Zm-259.072 -18.8416c34.58662400000001 -8.730624 65.665024 -10.24 79.02822400000001 4.7616000000000005 -35.3792 -12.8 -133.83679999999998 10.674176 -143.616 51.6096 0.48742399999999997 -14.9504 14.131200000000002 -43.700224000000006 64.58982400000001 -56.3712ZM25.6 296.72857600000003c-1.9456 -13.7216 0 -18.2272 2.048 -23.04 2.56 -5.656576 12.1344 -4.9152 18.432000000000002 20.48 1.4848 6.068224000000001 6.785024000000001 5.8122240000000005 5.5808 0.7168 -3.7888 -15.9744 -9.547776 -30.72 -20.0192 -30.2592 27.238400000000002 -11.186176 34.406400000000005 54.861824 20.9408 63.207424 -14.336 6.578176000000001 -23.9616 -8.9088 -26.982400000000002 -31.105024Zm10.981376000000001 170.625024C10.393600000000001 430.977024 14.723072 368.128 43.52 335.872a15.7184 15.7184 0 0 0 6.273024 0.229376c7.424 18.8416 34.942976 29.210624 69.75897599999999 28.16 0.38502400000000003 1.2288 0.845824 2.56 1.3578240000000001 3.661824 -33.075199999999995 25.4976 -87.271424 62.951424 -84.45542400000001 99.43039999999999Zm92.28902400000001 -142.977024c20.660224 3.4304 30.3104 -9.9328 35.84 -4.1717759999999995 2.56 2.791424 5.888 9.9328 5.888 25.4464a65.048576 65.048576 0 0 0 -14.669824 4.6592c-13.7216 -16.820224 -34.942976 -15.7184 -37.5808 1.2288 -3.018752 -9.5744 1.536 -28.645376000000002 10.395648 -27.160576000000002ZM198.887424 358.40000000000003c-5.7344 0 -28.827648 8.523776 -23.502848000000004 13.2096 3.7396480000000003 3.250176 18.970624 -7.372800000000001 28.545024 -7.297024a33.638400000000004 33.638400000000004 0 0 1 5.451776 13.697023999999999c-11.927552 3.1231999999999998 -24.522752 9.498624 -21.8112 13.850624s15.898624 -4.6080000000000005 22.8352 -5.8368c7.68 34.816 -45.899775999999996 82.53439999999999 -106.647552 98.6112 -22.861824000000002 6.041600000000001 -40.652800000000006 7.372800000000001 -57.114624000000006 -6.273024C28.16 448 87.04 399.872 116.148224 379.828224c4.6592 -3.1744000000000003 13.2096 -9.242624 11.7248 -12.314624 -12.8 -26.4704 11.3664 -28.16 24.754176 -11.0592a3.201024 3.201024 0 0 0 3.8912 0.794624c15.847424000000002 -7.6288 35.661824 -7.706624 42.369023999999996 1.1509760000000002Zm-6.299648 -24.653824c-3.4304 -17.688576 -11.544576 -32.024576 -21.323776000000002 -33.28 -12.007424 -1.560576 -16.9984 6.811648 -31.819776 8.654848 -10.676224000000001 1.3312000000000002 -20.916224 -3.6864000000000003 -30.541824000000002 6.6048a51.2 51.2 0 0 0 -12.3904 40.96c-17.125376 -2.3552 -34.482176 -8.450048 -40.755199999999995 -23.04 9.498624 -1.460224 14.6432 -39.911424 3.4816 -59.342848 9.703424000000002 -4.300800000000001 13.312000000000001 -15.1552 14.336 -21.835776000000003 11.956224 5.2736 27.777024 2.816 41.345023999999995 -20.248576 9.2672 7.9872 30.1056 8.650752 47.230976000000005 -13.824 11.956224 11.595776 24.576 13.873152000000001 37.505024 7.68 19.429376 37.605376 25.624576 80.920576 -7.065600000000001 107.5712Zm29.5424 -47.153152000000006c0.743424 -21.0944 -6.2463999999999995 -43.239424 -15.998976 -62.2592 24.2688 -0.077824 35.454976 46.002176 15.998976 62.156800000000004Zm-0.1536 -66.8672c-6.4512 -1.3578240000000001 -4.6592 -11.802624 -4.120576 -13.645824000000001 4.5056 2.56 11.288575999999999 6.144 12.466175999999999 3.6351999999999998s-5.8368 -6.731776 -10.496 -9.601023999999999a31.7952 31.7952 0 0 1 5.6832 -8.523776c4.737024000000001 2.9696 11.624448000000001 8.372224000000001 13.953024 5.5296 2.023424 -2.56 -5.12 -6.5536 -9.3184 -9.6256a27.316224 27.316224 0 0 1 17.92 -6.270976c14.0288 0.587776 16.896 8.8064 21.3504 8.8576s7.858176 -5.965824 13.029376000000001 -6.477824c13.824 -1.3312000000000002 13.185024 21.325824 9.474048000000002 25.6 -7.501824 8.525824 -51.277824 14.260224000000001 -69.9392 10.420224000000001Zm28.16 115.965952c17.92 -15.691776 35.5328 -26.5216 40.269824 -52.299776 7.372800000000001 -40.704 24.190976 -54.528 47.5136 -59.621376 15.7696 -3.432448 22.1696 0.512 28.467200000000002 -1.1530239999999998 7.1168000000000005 -1.8944 7.68 -6.119424 23.9616 -11.0592 62.181376 -18.8928 113.152 43.8272 77.61919999999999 120.44902400000001a61.44 61.44 0 0 0 -14.260224000000001 -3.8912c0 -12.8 -3.2768 -25.344 -8.779776 -33.613824 1.3824 -28.493824 -36.5568 -46.770176 -55.220224 -29.313024000000002 -16.9984 -15.36 -7.9605760000000005 -7.294976 -30.181376 3.866624 -29.1328 -29.2864 -74.24 9.3696 -51.2 42.9056a46.08 46.08 0 0 0 -8.833024 29.208576C266.24 352.6656 254.8736 381.44 248.805376 402.0736c-19.531776 -22.501376 -12.875776 -54.0672 1.255424 -66.48217600000001Zm103.3728 -21.4528c-32.256 21.837824 -64.587776 -27.262976 -29.976576 -46.08a27.365376 27.365376 0 0 1 38.680576 28.391424 14.618624 14.618624 0 0 0 -8.779776 17.588224Zm-40.728576000000004 2.893824c11.827200000000001 10.649600000000001 30.4128 11.339776 43.751424 2.945024 3.1231999999999998 5.451776 10.444799999999999 1.816576 7.065600000000001 -1.972224 -4.378624 -4.8885760000000005 -4.7104 -8.984575999999999 -3.125248 -12.007424 3.1744000000000003 -6.041600000000001 12.441600000000001 -5.2736 16.2816 -1.792 9.6768 28.442624000000002 55.169024 27.494400000000002 66.023424 0.2048 5.605376000000001 13.799424000000002 6.144 34.7648 -1.024 48.820224 -22.859776000000004 -38.580224 -80.99839999999999 -20.916224 -88.83200000000001 20.1728 -32.9216 3.9424 -60.3648 -26.804223999999998 -40.218624000000005 -56.4736Zm62.130176 -21.018624a14.872575999999999 14.872575999999999 0 0 0 -6.0928 -0.741376 36.9664 36.9664 0 0 0 -5.12 -20.9408 75.13702400000001 75.13702400000001 0 0 0 14.4384 -9.984 34.7136 34.7136 0 0 0 6.477824 5.324800000000001 32.999424 32.999424 0 0 0 -9.779200000000001 26.241024000000003ZM393.9328 270.336c17.92 -17.049599999999998 53.76 8.704 42.5472 32.3072 -22.401024000000003 40.0384 -81.58617600000001 -1.255424 -42.625023999999996 -32.4096Zm-132.378624 201.984c-22.016000000000002 -24.217599999999997 -10.776575999999999 -105.44537600000001 38.887424 -124.596224 5.505024000000001 21.8624 29.208576 34.4576 52.3776 32.256 3.096576 21.735424 17.227776000000002 36.608000000000004 31.0272 27.316224a79.00160000000001 79.00160000000001 0 0 1 4.069376 17.408c-13.848576 -7.68 -33.28 -11.700224 -59.211776 -12.210176 -1.972224 -8.065024000000001 -4.429824 -17.025024000000002 -8.8576 -15.872 -3.4304 0.868352 -1.099776 6.041600000000001 1.1530239999999998 15.896576 -34.099199999999996 4.427776 -67.713024 24.678400000000003 -59.4432 59.8016Zm144.12800000000001 -3.5328000000000004a11.0592 11.0592 0 0 1 -4.222976 5.914624c-1.8698240000000002 -18.100223999999997 -7.68 -22.6304 -10.676224000000001 -20.967424 -3.4816 1.8432000000000002 5.9392 12.083200000000001 3.7376 24.958976a86.196224 86.196224 0 0 1 -12.568576 4.327424c-0.9728 -8.8576 -2.791424 -22.450176 -8.704 -18.7392 -3.1744000000000003 1.972224 1.253376 7.141376 0.894976 20.633599999999998 -28.645376000000002 6.424576 -79.5648 7.499776 -105.5232 -7.2703999999999995 -21.9136 -78.7968 146.561024 -77.056 137.0624 -8.8576Zm39.348224 7.68c-6.477824 0.845824 -22.1696 1.716224 -32.6144 -7.4752 3.045376 -14.872575999999999 -4.5568 -29.5936 -17.537024000000002 -39.7312 -0.638976 -11.4176 -5.324800000000001 -30.4128 -12.8 -40.755199999999995 -3.4816 -4.8128 -9.189376000000001 -10.752 -12.1856 -7.2192 -3.4037759999999997 4.0448 9.191424000000001 11.1616 10.9568 18.944 -13.1584 15.0528 -30.72 -27.725824 -14.923776 -41.1136 9.6768 0.999424 18.2784 5.12 20.197376000000002 2.56 2.56 -3.659776 -8.574976000000001 -7.68 -15.1552 -8.396799999999999a56.6784 56.6784 0 0 1 12.1344 -9.547776c9.959424 0.8192 16.513024 5.758976 19.814400000000003 2.7648 2.433024 -2.2016 -4.683776 -5.9904 -10.24 -7.297024 19.2512 -4.4544 34.304 0.9482240000000001 45.901824000000005 19.124223999999998 25.419776000000002 39.884800000000006 43.5712 110.74560000000001 6.4512 118.142976Zm20.811776000000002 -5.5808c18.407424 -24.5248 -4.427776 -86.4256 -20.070400000000003 -111.642624a55.527424 55.527424 0 0 0 7.68 -24.549376000000002c34.535424 3.6864000000000003 41.8816 40.140800000000006 39.604224 66.76480000000001 -3.3792 38.529024 -13.9776 60.952576 -27.136 69.4272Z" fill="#1a1a1a" stroke-width="2.048"></path><path d="M325.812224 135.168a21.248 21.248 0 0 1 -22.298624 -1.099776c-7.424 4.120576 -20.48 2.56 -23.576576000000003 -0.1536a2.842624 2.842624 0 0 0 -4.276224 0.2048c-4.352 7.933952000000001 18.612223999999998 11.339776 27.8528 6.834176 6.5024 4.300800000000001 27.521024 3.659776 26.2656 -4.225024 -0.256 -1.6384 -2.433024 -2.226176 -3.969024 -1.560576Z" fill="#1a1a1a" stroke-width="2.048"></path><path d="M406.47679999999997 311.320576c15.872 0.5632 22.6304 -5.12 22.298624 -13.9776s-7.372800000000001 -17.483776000000002 -20.148224 -17.92c-13.4144 0 -21.069824 8.704 -21.786624 17.1008s5.351424 14.284799999999999 19.636224 14.7968Zm-10.24 -20.48a14.411776 14.411776 0 0 1 9.1648 -4.6080000000000005 63.768576 63.768576 0 0 0 0 18.458624c-11.802624 0.4096 -15.7184 -4.8128 -9.216000000000001 -13.824Z" fill="#1a1a1a" stroke-width="2.048"></path><path d="M103.243776 265.396224C79.4624 262.500352 57.344 287.89759999999995 73.6768 304.769024c12.544 12.9536 51.6608 0 51.634176000000004 -16.486400000000003 -0.024576 -13.160448 -8.2944 -21.1968 -22.065151999999998 -22.888448Zm-4.4032 36.222976c1.6384 -10.24 -1.202176 -22.1696 -3.5328000000000004 -29.44 23.117824000000002 -4.837376 36.429824 23.781376 3.5328000000000004 29.44Z" fill="#1a1a1a" stroke-width="2.048"></path><path d="M171.341824 242.5856c5.2736 -1.2288 11.544576 -0.512 13.2096 -3.969024 3.8133760000000003 -7.9872 -32.0512 -3.3259520000000005 -25.6 5.914624 1.867776 2.535424 6.731776 -0.641024 12.3904 -1.9456Z" fill="#1a1a1a" stroke-width="2.048"></path><path d="M159.9488 253.72262400000002c-11.9296 7.68 -10.24 28.3648 -1.972224 33.792 14.233600000000001 9.445376 46.823424 0.7925760000000001 49.383424 -15.5648 4.4544 -26.677248 -29.3888 -29.978624 -47.4112 -18.2272Zm40.96 17.432576c-0.3072 5.12 -12.1344 11.290624 -18.763776000000004 12.544a126.54182399999999 126.54182399999999 0 0 0 -2.101248 -30.2592c10.8544 -1.4848 21.786624 3.557376 20.889599999999998 17.7152Z" fill="#1a1a1a" stroke-width="2.048"></path><path d="M360.96 87.7568c-5.5808 -3.969024 -26.2656 -5.400576 -32.9216 -2.177024 -9.089024 4.429824 -11.188224 25.6 -1.4336 31.387648000000002 7.68 4.581376000000001 23.8592 6.2197759999999995 31.9488 1.6629760000000002S369.92 94.208 360.96 87.7568Zm-32 23.525376c9.0112 -4.0448 21.8624 -10.393600000000001 29.925376 -16.8448 7.809024000000001 20.916224 -14.258176 25.473024000000002 -29.925376 16.8448Z" fill="#1a1a1a" stroke-width="2.048"></path><path d="M353.28000000000003 336.152576a25.856 25.856 0 0 0 29.876224 -3.84c3.710976 -3.8912 0 -8.882176 -3.7888 -5.12s-14.387200000000002 7.348224 -23.1936 2.945024a3.33824 3.33824 0 0 0 -2.893824 6.017024Z" fill="#1a1a1a" stroke-width="2.048"></path><path d="M140.46617600000002 272.257024a3.2849920000000004 3.2849920000000004 0 0 0 -2.328576 6.144c8.011776 3.9157759999999997 5.502975999999999 16.869376 -4.300800000000001 17.92a3.2768 3.2768 0 0 0 0.741376 6.5024c15.745023999999999 -0.743424 20.48 -25.1904 5.888 -30.5664Z" fill="#1a1a1a" stroke-width="2.048"></path></g></g></svg>