<svg xmlns="http://www.w3.org/2000/svg" viewBox="0 0 512 512" height="512" width="512"><g><g><path d="M327.168 47.7184a3.405824 3.405824 0 0 0 4.429824 -1.8944c1.816576 -4.581376000000001 8.957951999999999 -9.189376000000001 16.254976 -10.496 3.659776 -0.6656000000000001 10.469376 -0.999424 14.977024 3.9936a3.4304 3.4304 0 0 0 5.810176 -0.9216000000000001c4.864 -11.776 17.7664 -18.712576000000002 30.181376 -18.712576000000002 15.489024 0 21.581824 6.5536 28.545024 20.224a3.4181120000000003 3.4181120000000003 0 0 0 6.0928 -3.098624c-7.68 -15.1552 -15.898624 -23.9616 -34.662400000000005 -23.9616a40.013824 40.013824 0 0 0 -34.430976 18.7904c-12.8 -8.574976000000001 -34.406400000000005 0.180224 -38.989824 11.700224a3.405824 3.405824 0 0 0 1.792 4.376576Z" fill="#1a1a1a" stroke-width="2.048"></path><path d="M472.60262400000005 476.8768c-5.607424 5.4272 -12.8 9.9328 -14.592 9.216000000000001 -6.273024 -2.279424 -13.287424000000001 -11.597824000000001 -22.272000000000002 -11.597824000000001 -5.6832 0 -10.8544 4.2496 -15.36 8.013824a25.1904 25.1904 0 0 1 -6.041600000000001 4.1983999999999995c-2.381824 0.2048 -6.348800000000001 -2.3552 -9.8816 -4.5056 -14.669824 -8.933376 -17.7664 -7.833600000000001 -29.235200000000003 0 -3.661824 2.56 -7.68 5.4272 -10.573824 5.556224 -10.878976000000002 0.5632 -25.6 -24.422400000000003 -42.008576000000005 -24.193024 -19.2 0 -33.28 27.238400000000002 -52.9408 28.698624 -4.300800000000001 0.256 -11.008000000000001 -5.12 -17.5616 -10.471424 -24.602624 -19.968 -32.077824 -20.1728 -58.343424 -3.354624 -6.373376 4.071424 -12.8 8.245248 -16.742400000000004 8.040448000000001s-8.728575999999999 -2.9184 -13.568 -5.5296c-15.872 -8.525824 -18.7904 -7.8602240000000005 -30.464000000000002 0.331776 -2.56 1.818624 -7.8848 5.709823999999999 -10.981376000000001 5.556224 -6.733823999999999 -0.333824 -13.0048 -11.956224 -23.937024 -11.571200000000001 -9.6768 0.4096 -15.230976 11.6224 -23.04 11.954176 -5.5296 0.23142400000000002 -13.7216 -8.2944 -17.637376 -13.7216a3.40992 3.40992 0 1 0 -5.5296 3.9936c1.2288 1.716224 12.210176 16.564224 23.04 16.564224s17.152 -11.700224 23.627776 -11.956224c7.68 -0.4096 13.6704 11.571200000000001 23.732224 11.571200000000001 9.138176 0 18.251776000000003 -11.3152 24.2688 -11.9808 6.834176 -0.741376 19.968 10.9568 30.208000000000002 11.597824000000001 11.9808 0.768 29.1328 -18.4832 44.288000000000004 -20.097024 8.6528 -0.9216000000000001 18.3808 6.9632 26.955776000000004 13.901824000000001 6.5024 5.298176000000001 14.848 12.517376 22.349824 11.9808 11.776 -0.897024 21.528576 -9.0112 30.1056 -16.154624000000002 20.326400000000003 -16.947200000000002 24.446976 -16.2816 42.496 -0.587776 7.448576 6.5024 14.514175999999999 12.8 22.1696 12.261376 8.523776 -0.434176 18.7904 -11.954176 23.8592 -11.954176 3.4037759999999997 0 7.68 2.686976 12.056576 5.298176000000001 13.082624000000001 7.936 15.104000000000001 6.8608 23.808 -0.256 10.24 -8.345600000000001 11.751424000000002 -8.472576 21.76 -0.9728a38.066176 38.066176 0 0 0 9.293824 5.709823999999999c7.141376 2.56 18.405376 -7.68 21.6576 -10.727424000000001a3.411968 3.411968 0 0 0 -4.737024000000001 -4.9152Z" fill="#1a1a1a" stroke-width="2.048"></path><path d="M485.60742400000004 277.45279999999997c-2.689024 -20.6848 -12.8 -34.099199999999996 -30.8736 -40.96a45.2608 45.2608 0 0 0 -58.2656 23.04c-8.448 -4.122624 -22.401024000000003 -3.5328000000000004 -30.388223999999997 3.864576 -5.9904 5.5296 -10.7008 9.908224 -10.7008 21.4528a3.4304 3.4304 0 1 0 6.8362240000000005 0c0 -8.5504 2.840576 -11.186176 8.574976000000001 -16.510976 6.426624 -5.965824 19.892224 -5.761024000000001 24.858624 -1.255424a3.4304 3.4304 0 0 0 5.451776 -1.253376c8.7552 -21.6064 29.825024000000003 -31.002624 51.2 -22.861824000000002 9.908224 3.7642240000000005 23.425024 11.546624 26.5216 35.457024a3.4304 3.4304 0 0 0 6.785024000000001 -0.8704Z" fill="#1a1a1a" stroke-width="2.048"></path><path d="M474.93120000000005 446.8224c-4.837376 4.6080000000000005 -13.7216 10.752 -17.383423999999998 9.3184 -6.5536 -2.56 -14.489600000000001 -10.9568 -23.320576000000003 -10.9568 -5.349376 0 -8.8064 3.3792 -11.8784 6.348800000000001 -6.578176000000001 6.4 -7.858176 5.761024000000001 -15.36 -0.333824 -4.096 -3.3013760000000003 -8.7552 -7.065600000000001 -14.209024 -7.2437759999999995 -12.414976000000001 -0.485376 -17.6128 13.4144 -27.723776 12.8 -11.083776 -0.6656000000000001 -28.672 -27.111424 -45.236224 -27.0848 -19.122176 0 -34.662400000000005 27.777024 -53.76 26.241024000000003 -18.507776000000003 -1.4848 -31.078400000000002 -25.395200000000003 -48.64 -23.425024 -9.3184 1.048576 -19.046400000000002 8.5504 -27.621376 15.179776 -6.273024 4.8128 -13.338624 10.24 -16.947200000000002 10.061824000000001 -7.68 -0.485376 -14.311424 -15.0016 -29.747200000000003 -13.2608 -9.216000000000001 1.0752000000000002 -11.2128 13.287424000000001 -21.6064 13.0048 -6.424576 -0.1536 -12.1344 -12.363776 -23.04 -11.905024 -9.6256 0.4096 -16.257024 11.776 -24.244224 12.109824000000001 -5.4272 0.180224 -13.668352 -8.6528 -17.586176 -14.309376a3.416064 3.416064 0 0 0 -5.632 3.864576c1.255424 1.816576 12.621824 17.664 23.500799999999998 17.2544s17.690624 -11.802624 24.2688 -12.109824000000001c7.450624 -0.3584 12.8 11.700224 22.6304 11.9296 13.4144 0.23142400000000002 17.664 -12.492799999999999 22.554624 -13.056000000000001 12.517376 -1.458176 17.92 13.312000000000001 29.1328 13.312000000000001 12.005376 0 30.72 -23.654400000000003 45.1584 -25.2928 13.541376 -1.509376 26.443776000000003 21.786624 47.308800000000005 23.4496 22.398975999999998 1.792 38.731775999999996 -26.2144 54.398976000000005 -26.238976 13.312000000000001 0 30.337024000000003 26.2144 44.826624 27.0848 13.541376 0.7925760000000001 18.968576000000002 -12.9536 27.877376 -12.673024 6.9632 0.256 14.336 12.468224000000001 23.04 12.109824000000001 9.447424000000002 -0.333824 13.056000000000001 -10.8544 18.8416 -10.8544s13.797376 7.68 20.787200000000002 10.444799999999999c9.0112 3.584 22.093824 -8.2944 24.627200000000002 -10.7008a3.414016 3.414016 0 1 0 -4.7104 -4.9418239999999996Z" fill="#1a1a1a" stroke-width="2.048"></path><path d="M219.5968 339.0464c1.816576 1.0752000000000002 16.3328 2.3552 39.7824 2.433024 26.624000000000002 0 62.539775999999996 -1.204224 64.6144 -2.433024 4.1472 -2.433024 4.225024 -26.753024000000003 3.5328000000000004 -41.240576000000004 -1.28 -26.5728 3.1231999999999998 -29.057024000000002 -5.8122240000000005 -28.979200000000002 -2.9696 0 -7.0144 0 -7.8848 1.867776s-0.638976 6.017024 -3.3792 6.4512c-0.768 0 -16.306176 -0.512 -35.250176 -0.512s-41.318400000000004 0.641024 -42.061824 0.512c-2.738176 -0.434176 -2.4064 -4.5056 -3.4037759999999997 -6.4512s-4.9152 -1.8432000000000002 -7.8602240000000005 -1.867776c-8.9088 0 -4.530176000000001 2.1504000000000003 -5.810176 28.979200000000002 -0.6922240000000001 14.514175999999999 -0.6144 38.809599999999996 3.5328000000000004 41.240576000000004Zm91.418624 -52.736000000000004c2.56 0 3.6864000000000003 0 3.147776 22.196223999999997l0 14.8992c-0.180224 4.632576 -1.0752000000000002 5.4272 -3.096576 5.12 -1.6138240000000001 -0.23142400000000002 -2.9184 -0.180224 -3.2256 -5.376s0.4096 -15.796224 0.434176 -20.48c-0.024576 -11.444224 -0.946176 -16.308224 2.7402240000000004 -16.359424Zm-23.04 5.4272c0.3072 -5.12 1.6384 -5.12 3.2256 -5.376 4.274176000000001 -0.638976 2.816 4.890624 3.1744000000000003 20.0192 0.536576 22.2208 -0.6144 22.247424 -3.1744000000000003 22.196223999999997 -3.661824 0 -2.7402240000000004 -4.9152 -2.791424 -16.486400000000003 0.0512 -4.5568 -0.6656000000000001 -15.130624000000001 -0.3584 -20.250624000000002Zm-19.8656 11.1616c0 -11.571200000000001 0 -16.5888 3.5328000000000004 -16.5888s3.506176 0.641024 2.994176 22.859776000000004l0 13.4144c-0.1536 4.634624 -0.638976 5.992448 -2.9696 5.9392 -1.560576 0 -2.7893760000000003 -0.178176 -3.096576 -5.373952s-0.38502400000000003 -15.693824000000001 -0.38502400000000003 -20.250624000000002Zm-16.461824 -16.5888c2.56 0 3.6864000000000003 0 3.149824 22.196223999999997l0 14.8992c-0.1536 4.632576 -1.0752000000000002 5.4272 -3.072 5.12 -1.6138240000000001 -0.23142400000000002 -2.945024 -0.180224 -3.2256 -5.376s0.4096 -15.796224 0.4096 -20.48c0.0512 -11.444224 -0.8704 -16.308224 2.816 -16.359424Zm-23.04 5.4272c0.3072 -5.12 1.6384 -5.12 3.2256 -5.376 2.023424 -0.3072 2.945024 0.48742399999999997 3.098624 5.12l0 14.8992c0.536576 22.2208 -0.589824 22.247424 -3.149824 22.196223999999997 -3.6864000000000003 0 -2.7648 -4.9152 -2.7893760000000003 -16.486400000000003 0.178176 -4.5568 -0.538624 -15.130624000000001 -0.23142400000000002 -20.250624000000002Z" fill="#1a1a1a" stroke-width="2.048"></path><path d="M64.897024 63.258624000000005a3.405824 3.405824 0 0 0 4.7616000000000005 -0.768c6.912 -9.5744 13.797376 -14.7968 30.130176 -14.516224000000001 9.396224 0 16.896 5.5296 23.654400000000003 17.076224a3.405824 3.405824 0 0 0 4.7616000000000005 1.1509760000000002c13.287424000000001 -8.372224000000001 23.2448 -6.348800000000001 32.333824 6.6048a3.416064 3.416064 0 0 0 5.5808 -3.9424c-10.496 -14.9504 -23.476224 -18.3808 -38.580224 -10.24 -7.68 -11.6736 -16.664576 -17.432576 -27.672576000000003 -17.5616 -19.124223999999998 -0.178176 -27.904 6.477824 -35.84 17.3568a3.405824 3.405824 0 0 0 0.8704 4.839424Z" fill="#1a1a1a" stroke-width="2.048"></path><path d="M55.169024 202.008576a3.3792 3.3792 0 0 0 3.8912 -2.7893760000000003c1.6629760000000002 -9.5744 8.062975999999999 -16.128 19.582976 -19.968 8.628224000000001 -2.8672 28.825599999999998 1.0752000000000002 34.738176 15.8208a3.405824 3.405824 0 0 0 5.505024000000001 1.2288c2.56 -2.3552 7.4752 -2.689024 11.827200000000001 -0.794624a15.179776 15.179776 0 0 1 9.086976 14.823424000000001 3.4304 3.4304 0 1 0 6.8362240000000005 0c0 -18.305024000000003 -17.537024000000002 -26.4704 -28.698624 -21.4528 -8.7552 -15.36 -29.925376 -19.943424 -41.445375999999996 -16.103424 -12.8 4.2496 -20.48 11.700224 -23.476224 22.196223999999997a29.313024000000002 29.313024000000002 0 0 0 -26.238976 16.2304 3.4304 3.4304 0 0 0 6.117376 3.045376 21.9648 21.9648 0 0 1 22.272000000000002 -12.236799999999999Z" fill="#1a1a1a" stroke-width="2.048"></path><path d="M211.3024 130.996224c5.12 -3.584 2.7648 -25.1904 -0.690176 -26.701824000000002 -6.6048 -2.9184 -15.745023999999999 -1.816576 -18.305024000000003 1.255424 -1.972224 2.4064 -1.1264 21.528576 0.512 24.805376 2.123776 4.2496 13.643776 3.9936 18.4832 0.641024Zm-14.1824 -21.504a22.1696 22.1696 0 0 1 10.0864 -0.768 42.035199999999996 42.035199999999996 0 0 1 0.1536 16.715776c-7.0144 1.765376 -8.984575999999999 1.024 -9.345024 0.845824 -1.2288 -2.484224 -2.048 -13.901824000000001 -0.894976 -16.793599999999998Z" fill="#f15807" stroke-width="2.048"></path><path d="M411.162624 376.32c-0.845824 -5.914624 -7.68 -4.530176000000001 -6.9632 -1.28 1.048576 5.12 0.485376 9.1136 -3.969024 12.109824000000001 -1.6650239999999998 -3.5082240000000002 -4.020224000000001 -9.216000000000001 -6.273024 -14.901248 8.245248 -2.994176 9.089024 -5.12 7.68 -7.065600000000001s-3.4549760000000003 -2.048 -10.084352 0.6656000000000001c-0.256 -0.6656000000000001 -0.48742399999999997 -1.304576 -0.743424 -1.9456 4.122624 -3.84 0.6144 -13.541376 -5.5296 -13.6704 -10.829824 -1.202176 -12.032 17.076224 -0.6922240000000001 16.564224 0.23142400000000002 0.5632 0.436224 1.1264 0.6922240000000001 1.7408 -4.096 2.123776 -9.652224 1.560576 -8.677376 6.680576 2.7893760000000003 4.6592 5.373952 1.3578240000000001 11.1616 -0.331776 2.072576 5.2736 4.349952 10.776575999999999 6.144 14.616576 -4.276224 0.743424 -7.68 -0.536576 -12.109824000000001 -2.226176a3.4304 3.4304 0 0 0 -2.4064 6.4c6.834176 2.56 13.0048 4.1472 20.48 1.304576a16.357376000000002 16.357376000000002 0 0 0 11.288575999999999 -18.661376Z" fill="#f15807" stroke-width="2.048"></path><path d="M131.12320000000003 337.92c-3.303424 5.888 6.2463999999999995 10.649600000000001 8.192 4.122624s-5.5808 -8.884224 -8.192 -4.122624Z" fill="#f15807" stroke-width="2.048"></path><path d="M171.52 147.275776c24.3712 3.2768 49.281024 -6.475776 65.562624 4.7616000000000005 -9.242624 16.922624 11.493376 29.1328 27.0848 25.370624 0.178176 6.9632 0 17.229824 -0.180224 22.298624 -17.176576 -1.589248 -10.778624 23.04 0 25.751552 -3.096576 11.931648 16.0768 10.829824 8.8064 20.787200000000002a9.291776 9.291776 0 0 0 -5.8368 0.155648 3.917824 3.917824 0 0 1 -1.304576 -4.583424c1.3312000000000002 -4.7104 -6.4 -5.12 -7.348224 0.589824a8.523776 8.523776 0 0 0 2.0991999999999997 6.9632 183.09120000000001 183.09120000000001 0 0 0 -27.392 20.224c-2.56 -5.556224 -18.558975999999998 -5.556224 -19.941376 0.9216000000000001 -3.149824 13.848576 -3.149824 70.5024 4.786176 71.4752 8.833024 4.7616000000000005 103.0656 2.840576 107.8784 0 7.936 -0.9728 7.9872 -50.151424 4.839424 -71.4752 -1.1776 -7.962624 -18.253824 -6.5024 -20.148224 -0.436224a128.436224 128.436224 0 0 0 -30.949376 -21.4528c7.424 -16.64 -10.5472 -15.5136 -8.679424000000001 -23.04 10.573824 -0.229376 12.492799999999999 -12.8 11.1104 -21.76 -0.9728 -3.9936 -6.2197759999999995 -4.1717759999999995 -11.083776 -4.352 0.1536 -5.4272 0.3584 -16.050176 0.1536 -23.04 15.36 -7.065600000000001 25.6 4.7104 39.936 3.659776 40.114176 -2.9696 30.3616 -13.387776 3.352576 -35.198976a93.362176 93.362176 0 0 0 39.706624000000005 -7.168c23.04 16.896 80.0768 11.032575999999999 33.6896 -16.871424 7.933952000000001 -5.783551999999999 13.541376 -14.745600000000001 4.657152 -19.6608 -5.349376 -2.9429760000000003 25.165824 -37.732352 2.56 -41.445375999999996 -40.96 -6.629376000000001 -37.5808 38.834176 -73.984 34.279424 9.728 -8.345600000000001 16.1792 -17.383423999999998 12.468224000000001 -22.272000000000002 -2.8672 -3.84 -12.417024 -4.6080000000000005 -28.518400000000003 -4.276224 -18.7392 0.4096 -46.770176 16.3328 -61.261824000000004 23.04 -37.2736 -4.378624 -55.678976000000006 -1.972224 -68.888576 1.3824 -22.5792 5.7344 -40.0896 19.302400000000002 -40.6016 31.666176 -0.46080000000000004 9.549824000000001 9.857024 18.5344 37.4272 23.7056Zm139.4688 133.24902400000002c4.7616000000000005 -0.9482240000000001 3.713024 -5.888 5.761024000000001 -7.8848a6.424576 6.424576 0 0 1 7.2437759999999995 -0.333824c5.12 4.9418239999999996 1.765376 59.138048000000005 -1.8432000000000002 63.692800000000005 -3.4816 1.767424 -92.16 3.201024 -100.634624 0.1536 -3.659776 -4.069376 -5.12 -56.7296 -1.8944 -63.8464 0.8192 -1.867776 4.993024 -0.1536 7.2192 0.333824 2.56 8.8576 1.8698240000000002 7.936 15.36 7.68 17.92 -0.512 52.199424 -0.1536 68.788224 0.2048Zm-6.7072 -6.885376c-16.203776 -0.6144 -48.818176 -0.4096 -65.767424 0 28.289024 -25.677824 36.993024 -25.1904 65.767424 0Zm-53.964800000000004 -106.0864c-6.8096000000000005 3.762176 -11.032575999999999 -9.140224 -6.938624 -12.621824 6.017024 2.074624 14.08 5.9904 6.938624 12.619776ZM275.456 206.6432c0.999424 9.6768 -3.354624 14.336 -11.008000000000001 11.905024a19.019776000000004 19.019776000000004 0 0 1 -4.300800000000001 -11.4176 51.6096 51.6096 0 0 1 15.3088 -0.48742399999999997Zm-18.917376 -35.6864a14.336 14.336 0 0 0 3.2768 -8.6528c4.939776 2.177024 9.9328 4.378624 14.667776 6.426624a58.88 58.88 0 0 1 -17.944576 2.226176ZM314.441728 153.6c24.729599999999998 19.404799999999998 19.380224 16.971776000000002 -3.2768 19.585024 -20.9408 -1.511424 -33.9968 -12.083200000000001 -56.856576000000004 -20.840448000000002 -15.745023999999999 -9.0112 -35.072 -10.24 -31.053824000000002 -20.1728 1.4090239999999998 -3.4549760000000003 15.36 -5.12 29.8496 -5.12 22.503424 0 26.189824 1.8698240000000002 31.207424 5.300224 5.914624 4.173824 19.5072 13.082624000000001 30.130176 21.248Zm81.76639999999999 -17.92c1.818624 1.4336 -1.9456 2.842624 -4.247552 3.2768 -19.6096 3.557376 -36.9664 -7.041024 -52.045824 -17.7664 -1.714176 -1.2288 -1.4069760000000002 -2.328576 0.6922240000000001 -2.56 13.694976 -0.9482240000000001 26.112000000000002 -1.1776 32.9216 1.816576a211.0976 211.0976 0 0 1 22.6816 15.233024Zm-124.38937600000001 -51.456c12.339200000000002 -5.451776 21.1968 -9.984 33.101824 -9.984 21.784576 0.5632 26.290176 -1.28 17.227776000000002 9.1136 -13.338624 16.2304 -22.3232 10.24 -64.84582400000001 7.68 4.6592 -2.177024 10.010624 -4.737024000000001 14.516224000000001 -6.731776ZM144.0768 116.6336c4.8885760000000005 1.255424 19.8656 3.969024 28.006400000000003 1.7408 5.324800000000001 -1.458176 4.376576 -8.421376 3.7888 -9.803776 -0.897024 -2.0991999999999997 -11.827200000000001 -2.023424 -19.3536 -1.716224 16.64 -13.1584 52.248576 -13.182976 87.42297599999999 -9.752576 36.685824000000004 3.584 77.74822400000001 8.011776 96.3072 2.328576 12.8 -3.9157759999999997 19.558400000000002 -18.3296 31.488 -26.7776 6.5536 -4.634624 10.010624 -5.965824 20.121599999999997 -4.9152s-19.173376 31.461376 -5.376 39.424c5.7344 3.3280000000000003 -2.7648 7.8848 -4.786176 9.6768 -5.8368 -3.762176 -10.393600000000001 -5.2736 -35.84 -4.1472 -10.24 0.46080000000000004 -15.36 1.4336 -16.666624 4.532224s1.562624 7.499776 16.896 16.2304c-25.7536 8.267776 -40.626176 5.888 -58.88 -7.2192 -11.339776 -8.0896 -51.4048 -5.4272 -63.307776 -2.3040000000000003a10.24 10.24 0 0 0 -5.632 15.742976c-12.236799999999999 0.743424 -36.378624 2.125824 -45.850624 0.8192 -16.254976 -2.2528 -41.16480000000001 -11.6224 -28.338176 -23.8592Z" fill="#f15807" stroke-width="2.048"></path><path d="M445.6448 334.5408c-2.9184 -2.9184 -7.499776 -4.096 -15.36 -3.864576 -18.507776000000003 0.690176 -51.941376 -0.7168 -67.43039999999999 0.6656000000000001 -14.387200000000002 -0.3072 -15.0016 19.890176 -23.937024 25.880576 -34.533376 0.999424 -111.845376 -0.845824 -155.8528 -0.46080000000000004 0.155648 -28.542976 0.23142400000000002 -28.928 0.7168 -58.88 12.8 1.1530239999999998 13.389824 -7.68 12.8 -19.0976 -0.4096 -12.466175999999999 1.8432000000000002 -20.094976 -12.541952 -19.480576000000003 0.28057600000000005 -8.474624 -7.68 -14.745600000000001 -17.178624 -13.5168 0 -2.56 -0.129024 -5.709823999999999 -0.229376 -8.884224 9.162752000000001 4.378624 22.781952 16.691200000000002 20.889599999999998 -11.390976 0 -25.395200000000003 -10.24 -16.001024 -21.274624 -6.887424a50.45862400000001 50.45862400000001 0 0 1 0.46080000000000004 -9.1648 3.4304 3.4304 0 0 0 -6.631424 -1.6896c-1.304576 3.201024 -0.28057600000000005 27.238400000000002 0 37.914624 -12.5952 -0.7168 -28.16 1.202176 -27.416576000000003 14.872575999999999 0.28057600000000005 5.249024 0.5632 31.668224 0.768 41.293824 -20.48 0.6656000000000001 -45.953024 -5.12 -44.4928 16.050176a20.48 20.48 0 0 0 -5.632 0.8704c-3.1231999999999998 1.792 -1.4336 6.1952 5.349376 5.965824 -0.2048 8.4992 0 19.814400000000003 0.4096 31.461376a24.576 24.576 0 0 0 -5.8368 0.7168c-2.7648 1.511424 -2.1504000000000003 6.5536 6.0928 6.0928 0.7168 18.3808 1.511424 32.5632 2.0991999999999997 43.290624 0.6144 13.746176 16.769024 17.483776000000002 24.422400000000003 25.419776000000002a5.965824 5.965824 0 0 1 1.4090239999999998 5.658624 3.5328000000000004 3.5328000000000004 0 0 1 -1.5872000000000002 2.2773760000000003 3.4304 3.4304 0 0 0 0.997376 6.682624c8.065024000000001 -1.306624 9.9328 -13.312000000000001 4.4032 -19.021824000000002 -5.888 -7.4752 -22.1696 -11.3152 -22.8352 -21.374976 -0.8704 -15.540224 -1.611776 -30.976 -2.072576 -42.932224000000005 73.0112 0.512 175.742976 1.6896 243.20000000000002 1.1264 7.909376 -0.8192 10.035200000000001 -7.9605760000000005 11.9808 -11.9808 4.352 -9.086976 6.2197759999999995 -13.2608 12.3904 -13.899776 15.233024 -1.3312000000000002 48.64 0 66.893824 -0.641024 8.8064 0.1536 12.056576 0 11.264 7.68 2.174976 14.387200000000002 -9.371647999999999 48.4864 -27.9552 59.418624 -33.972224000000004 19.992576 -7.450624 45.2096 -8.833024 28.440576 -7.68 -17.6128 23.808 -25.2416 30.72 -41.189375999999996 12.517376 -22.272000000000002 16.510976 -42.625023999999996 9.8304 -57.421824ZM184.11520000000002 266.03520000000003c2.56 0 4.325376 -0.1536 4.8885760000000005 0.38502400000000003 2.3552 2.3552 0.46284800000000004 10.469376 0.641024 14.6432 -0.229376 6.578176000000001 1.818624 10.776575999999999 -5.8368 9.8816 0.1536 -9.345024 0.28262400000000004 -18.8416 0.3072 -24.909824Zm-4.352 -49.537023999999995a76.41702400000001 76.41702400000001 0 0 1 0.3072 19.533824 47.233024 47.233024 0 0 1 -13.490176 -7.68 45.2096 45.2096 0 0 1 13.182976 -11.851776ZM176.154624 356.7616c-29.696 0.256 -50.843648 -0.5632 -80.461824 -0.6922240000000001q-0.6922240000000001 -20.48 -0.436224 -31.5392c25.780224 -0.6144 57.37062400000001 0.9728 81.2032 0 -0.126976 12.339200000000002 -0.28057600000000005 14.08 -0.3072 32.231424Zm0.485376 -39.065599999999996c-20.760576 0.9728 -56.4736 -0.589824 -80.922624 0 -0.9216000000000001 -15.691776 23.04 -8.984575999999999 41.191424 -9.1648 19.890176 -0.180224 42.291199999999996 -7.1168000000000005 39.7312 9.1648Zm0.28262400000000004 -14.977024c-11.751424000000002 -3.4816 -16.717824 -0.3584 -36.737024 -1.024 -0.2048 -9.445376 -0.3072 -36.120576 -0.794624 -41.240576000000004 -0.638976 -7.1168000000000005 7.450624 -8.6528 13.799424000000002 -7.833600000000001s22.657024000000003 -5.12 23.910400000000003 6.7072c-11.032575999999999 0.6144 -22.1184 -1.099776 -25.6 6.7072 -1.304576 2.816 -0.768 6.8096000000000005 -0.641024 12.8s-0.512 9.8304 0.512 12.8c3.0208000000000004 8.6528 13.1584 6.475776 25.7536 6.2463999999999995q-0.3072 2.4576 -0.331776 4.839424Zm0.178176 -11.800576c-5.5296 -0.4096 -14.540799999999999 1.024 -19.122176 -0.180224 0 -25.6 -7.323648 -23.883776 19.429376 -24.576 -0.1536 6.068224000000001 -0.28262400000000004 15.5648 -0.436224 24.756224Z" fill="#f15807" stroke-width="2.048"></path><path d="M110.592 335.5136c-6.785024000000001 0.3584 -6.375424 8.192 -1.1530239999999998 9.089024 6.656000000000001 1.1509760000000002 7.962624 -9.4208 1.1530239999999998 -9.089024Z" fill="#f15807" stroke-width="2.048"></path><path d="M164.864 341.29920000000004a4.378624 4.378624 0 1 0 -8.192 -3.047424c-2.023424 6.4512 6.785024000000001 9.0624 8.192 3.047424Z" fill="#f15807" stroke-width="2.048"></path><path d="M176.971776 385.304576c-25.010176 11.597824000000001 5.12 42.3936 18.0736 20.48a15.130624000000001 15.130624000000001 0 0 0 -18.071552 -20.48Zm11.700224 18.0736c-3.2256 5.12 -16.564224 3.713024 -13.824 -7.065600000000001 2.8672 -10.110976 18.917376 -2.3797759999999997 13.824 7.065600000000001Z" fill="#f15807" stroke-width="2.048"></path><path d="M320.48742400000003 385.5872c-15.949824000000001 4.5056 -9.754624 30.181376 4.478975999999999 28.033024 22.9376 -0.7168 15.898624 -34.33062400000001 -4.481024000000001 -28.033024Zm11.390976 17.330176c-3.4304 6.5536 -16.203776 5.505024000000001 -13.875200000000001 -5.9392 2.945024 -10.418175999999999 18.8416 -3.633152 13.875200000000001 5.9392Z" fill="#f15807" stroke-width="2.048"></path><path d="M224.05120000000002 385.51142400000003c-13.236224 1.536 -12.8 29.208576 4.0448 28.16 20.992 0.512 17.459200000000003 -33.7408 -4.0448 -28.16Zm9.854976 18.968576000000002c-9.1136 9.1136 -18.917376 -8.474624 -8.0384 -12.288 7.399424 -2.7402240000000004 12.724224000000001 7.399424 8.0384 12.288Z" fill="#f15807" stroke-width="2.048"></path><path d="M288.178176 392.628224c-6.4512 -13.1584 -32.512 -7.68 -26.853376 11.032575999999999 5.400576 16.769024 34.9696 9.189376000000001 26.853376 -11.032575999999999Zm-7.065600000000001 10.752c-19.1488 12.544 -16.896 -21.4528 0.6656000000000001 -8.321024a8.065024000000001 8.065024000000001 0 0 1 -0.6656000000000001 8.321024Z" fill="#f15807" stroke-width="2.048"></path></g></g></svg>